<?xml version="1.0" encoding="UTF-8" standalone="no"?>
<svg
   xmlns:dc="http://purl.org/dc/elements/1.1/"
   xmlns:cc="http://creativecommons.org/ns#"
   xmlns:rdf="http://www.w3.org/1999/02/22-rdf-syntax-ns#"
   xmlns:svg="http://www.w3.org/2000/svg"
   xmlns="http://www.w3.org/2000/svg"
   version="1.1"
   id="svg2"
   viewBox="0 0 100 100"
   height="100"
   width="100">
  <defs
     id="defs4" />
  <metadata
     id="metadata7">
    <rdf:RDF>
      <cc:Work
         rdf:about="">
        <dc:format>image/svg+xml</dc:format>
        <dc:type
           rdf:resource="http://purl.org/dc/dcmitype/StillImage" />
        <dc:title></dc:title>
      </cc:Work>
    </rdf:RDF>
  </metadata>
  <g
     transform="translate(0,-952.36216)"
     id="layer1">
    <g
       transform="matrix(0.3726996,0,0,0.3726996,-4.2976736,925.73752)"
       id="g3349"
       style="font-style:normal;font-weight:normal;font-size:12px;font-family:Dialog;color-interpolation:auto;fill:#000000;fill-opacity:1;stroke:#000000;stroke-width:1;stroke-linecap:square;stroke-linejoin:miter;stroke-miterlimit:10;stroke-dasharray:none;stroke-dashoffset:0;stroke-opacity:1;color-rendering:auto;image-rendering:auto;shape-rendering:auto;text-rendering:auto">
      <g
         id="g3339">
        <g
           id="g3341">
          <path
              style="stroke:none"
	      fill="black"
             d="m 279.8438,119.5312 q 0,16.1719 -8.0157,26.4376 -5.4843,7.0312 -24.3281,26.0156 -9.4219,9.8437 -28.9688,28.125 -10.9687,9.2812 -29.25,9.2812 -9.8437,0 -19.8281,-4.2187 l -24.6093,24.0469 q 4.7812,12.9374 4.7812,20.8124 0,16.1719 -9,27.1407 -5.0625,6.0469 -23.625,25.0312 -9,9.1407 -27.4219,27 -3.2343,2.9531 -8.7187,5.625 -10.125,4.9219 -21.0938,4.9219 -19.125,0 -33.6797,-14.3438 -14.5547,-14.3437 -14.5547,-33.4687 0,-17.4375 9.2813,-28.125 6.3281,-7.3125 24.3281,-25.5937 8.4375,-8.5782 25.875,-25.4532 4.9219,-4.5 14.9063,-7.7344 9.2812,-2.9531 16.5937,-2.9531 10.125,0 19.9688,4.7813 l 24.4687,-24.75 q -4.7812,-7.7344 -4.7812,-20.25 0,-12.6563 5.3437,-22.2188 4.6406,-8.2968 21.0938,-24.75 12.2344,-11.8125 24.4687,-23.7656 7.0313,-7.1719 11.3907,-10.4062 11.9531,-8.8594 27.4218,-8.8594 19.4063,0 33.6797,14.1328 14.2735,14.1328 14.2735,33.539 z m -31.6407,0.2813 q 0,-6.6094 -4.6406,-11.4609 -4.6406,-4.8516 -11.25,-4.8516 -6.6094,0 -10.5469,3.6562 -0.1406,0.1407 -13.0781,13.6407 -17.1563,17.5781 -25.875,26.4375 3.2344,-1.125 6.4687,-1.125 6.3282,0 11.7422,5.0625 5.4141,5.0625 5.4141,11.3906 0,2.9531 -1.5469,6.8906 19.4063,-19.4062 29.25,-29.5312 4.7813,-4.6407 12.0938,-13.0781 1.9687,-3.0938 1.9687,-7.0313 z m 20.8125,-0.4219 q 0,-14.9062 -10.9687,-25.8047 -10.9688,-10.8984 -25.875,-10.8984 -14.4844,0 -22.6407,7.1719 -7.1718,6.3281 -26.2968,25.4531 -8.0156,7.875 -23.4844,24.3281 -7.1719,8.2969 -7.1719,22.6406 0,9.7032 2.5313,11.5313 2.8125,-2.8125 8.5781,-8.2969 -0.1406,-1.4062 -0.1406,-2.9531 0,-11.3906 4.7812,-16.5937 5.9063,-6.3282 27,-27.4219 7.3125,-7.5938 22.7813,-21.375 5.3437,-4.0781 14.0625,-4.0781 10.8281,0 18.4219,7.8046 7.5937,7.8047 7.5937,18.6328 0,9.2813 -4.2187,15.0469 -4.2188,5.7657 -29.6719,29.3907 -7.3125,7.4531 -14.625,15.0468 -9.5625,8.7188 -17.7188,8.7188 -0.8437,0 -2.3906,-0.211 -1.5469,-0.2109 -2.3906,-0.2109 -0.8438,0 -9.5625,9.4219 5.625,2.25 12.0937,2.25 10.5469,0 17.5781,-4.5 5.0626,-3.2344 23.4844,-21.375 9,-8.5782 17.8594,-17.0156 11.3906,-11.25 15.8906,-18.4922 4.5,-7.2422 4.5,-18.211 z m -73.8281,43.4532 q 0,-1.5469 -2.6016,-3.9376 -2.6015,-2.3906 -4.1484,-2.3906 -1.125,0.8438 -4.0781,3.6563 -0.8438,0.8437 -73.8282,73.2656 -14.3437,14.2031 -14.3437,15.75 0,1.4063 2.1094,3.8672 2.1093,2.4609 3.5156,2.4609 1.4063,0 19.5469,-18 23.7656,-23.3437 70.3125,-70.7344 1.6875,-1.8281 3.5156,-3.9374 z m -56.3906,86.625 q 0,-6.8907 -1.9688,-11.8126 -3.0937,2.3907 -6.3281,4.6407 -3.375,2.9531 -3.375,6.6093 0,0.8438 0.1406,2.5313 0.1406,1.6875 0.1406,2.5313 0,5.2031 -3.0937,9.4218 -3.9375,5.4844 -25.7344,27.2813 -22.5,22.5 -26.5781,24.6093 -6.3281,3.2344 -12.7969,3.2344 -10.8281,0 -18.6328,-7.664 -7.8047,-7.6641 -7.8047,-18.4922 0,-10.9688 6.6094,-17.8594 3.6562,-3.7969 26.7188,-26.4375 6.75,-6.8906 20.9531,-20.25 5.0625,-4.0781 14.0625,-4.0781 0.5625,0 1.6875,0.2109 1.125,0.2109 1.6875,0.2109 1.125,0 9,-9.2812 -5.4844,-2.3906 -11.6719,-2.3906 -12.7969,0 -21.6563,7.5937 -10.6874,9.1407 -31.2187,29.8125 -7.0313,6.8906 -20.3906,21.2344 -6.1875,7.3125 -6.1875,21.2344 0,15.0468 10.8984,26.0156 10.8984,10.9688 25.9453,10.9688 13.9219,0 22.0781,-7.1719 9,-7.875 29.25,-28.125 7.4532,-7.3125 21.5157,-22.5 6.75,-8.1563 6.75,-22.0781 z m -30.5157,16.1718 q -2.8124,0.7032 -5.625,0.7032 -6.6093,0 -11.9531,-5.6954 -5.3437,-5.6953 -5.3437,-12.3046 0,-2.3907 0.7031,-5.4844 -13.6406,12.7968 -39.2344,39.6562 -3.6562,4.2188 -3.6562,9.4219 0,6.4687 4.7812,11.0391 4.7813,4.5703 11.25,4.5703 6.3281,0 9.1407,-2.25 2.1093,-1.6875 11.6718,-11.1797 9.5625,-9.4922 28.2656,-28.4766 z"
             id="path3343" />
        </g>
      </g>
    </g>
  </g>
</svg>
